<svg id="Group_275" data-name="Group 275" xmlns="http://www.w3.org/2000/svg" width="220.481" height="70.316" viewBox="0 0 220.481 70.316">
  <defs>
    <style>
      .cls-1 {
        fill: #9aa09b;
      }

      .cls-2 {
        fill: #86bc25;
      }
    </style>
  </defs>
  <path id="Path_1146" data-name="Path 1146" class="cls-1" d="M467.655,324.428a5.865,5.865,0,0,1-5.776-7.02l.168-.841,1.959.711-.01.526a3.633,3.633,0,0,0,.748,2.276,3.692,3.692,0,0,0,2.921,1.437,3.652,3.652,0,0,0,2.827-1.356l.331-.408,2.373.862-.406.752a5.851,5.851,0,0,1-5.136,3.061" transform="translate(-404.399 -316.567)"/>
  <path id="Path_1147" data-name="Path 1147" class="cls-1" d="M420.719,335.465a2.637,2.637,0,0,0-1.958-.857,3.392,3.392,0,0,0-3.2,3.183,3.123,3.123,0,0,0,.773,2.372,2.637,2.637,0,0,0,1.958.857,3.393,3.393,0,0,0,3.2-3.183,3.123,3.123,0,0,0-.774-2.372" transform="translate(-373.529 -328.618)"/>
  <g id="Group_274" data-name="Group 274" transform="translate(0 8.965)">
    <path id="Path_1148" data-name="Path 1148" class="cls-1" d="M449.371,405.778a9.293,9.293,0,0,1-1.7-1.472l0,.011c-.02-.025-.036-.051-.057-.076a11.794,11.794,0,0,1-2.45-4.611,25.629,25.629,0,0,1-.483-12.46c0-.058.01-.117.01-.174.108-.577.245-1.147.393-1.712.341-1.392.642-2.237.643-2.239.225-.75.45-1.5.646-2.261.237-.914.445-2.145-.675-2.562a2.4,2.4,0,0,0-2.784,1.449c.006.009.01.02.016.03a11.5,11.5,0,0,0-2.135-2.715c-6.129-5.689-17.292-3.627-24.936,4.606-6.1,6.572-8.1,15.081-5.545,21.144.951-.537,2.033-1.151,2.682-1.519l.854-.485v0c.161-.106.376-.231.666-.4l.206-.121c-1.866-4.779-.307-11.312,4.377-16.359,5.993-6.455,14.8-8.018,19.682-3.49a9.282,9.282,0,0,1,1.615,1.994c.159.262.3.534.437.811,1.988,4.113,1.2,9.771-2.123,14.638a8.441,8.441,0,0,0,.3.883,6.619,6.619,0,0,0,.794,1.385c.215-.286.438-.568.639-.858h0c.881-1.582,1.318-1.093,1.343-.7a48.193,48.193,0,0,0,.541,4.842,11.807,11.807,0,0,0,1.4,4.417,4.485,4.485,0,0,0,4.162,2.214c1.952-.219,3.405-2.924,1.477-4.212" transform="translate(-369.31 -363.74)"/>
    <path id="Path_1149" data-name="Path 1149" class="cls-1" d="M425.675,461.258c-.082-.076-.149-.163-.228-.241-.145.153-.263.276-.365.373l-.5.55c-.553.6-1.629,1.765-2.484,2.693,5.531,4.705,14.767,3.509,22.018-2.536a6.22,6.22,0,0,1-1.038-2.213c-5.781,4.623-13.111,5.355-17.4,1.374" transform="translate(-377.901 -421.26)"/>
    <path id="Path_1150" data-name="Path 1150" class="cls-1" d="M321.185,414.677c.037-.25.068-.48.093-.681.031-.26.065-.517.087-.788h-1.174a14.37,14.37,0,0,1-.458,1.71,9.481,9.481,0,0,1-2.463,3.868,11.323,11.323,0,0,1-6.546,2.807,9.134,9.134,0,0,1-1.017.052c.175-.422.35-.852.526-1.286,1.258-3.1,7.3-21.77,7.745-22.988a1.278,1.278,0,0,0-.072-1.16c-.013-.022-.026-.045-.04-.067a2.968,2.968,0,0,0-1.558-1.035,2.256,2.256,0,0,0-1.611-.092,1.406,1.406,0,0,0-.4.236,1.775,1.775,0,0,0-.3.4c-.177.315-.772,1.407-1.026,1.878l-.234.441a8.508,8.508,0,0,0-6.807-3.129,11.179,11.179,0,0,0-1.364.088,15.6,15.6,0,0,0-7.544,3.364,21.64,21.64,0,0,0-7.379,10.984,16.919,16.919,0,0,0-.64,4.367v.329c0,.12,0,.238,0,.352a10.367,10.367,0,0,0,3.087,7.476,8.653,8.653,0,0,0,5.968,2.208,11.107,11.107,0,0,0,1.317-.084c-.407.158-.8.322-1.169.492-3.956,1.646-8.458,5.244-8.127,9.967a4.927,4.927,0,0,0,5.135,4.782c.168,0,.34-.007.514-.021,3.275-.26,6.547-3.223,10-9.057a47.612,47.612,0,0,0,2.169-4.281,19.793,19.793,0,0,0,3.492-.416c3.531-.835,8.623-3.331,9.792-10.718m-26.728,20.378c-.08.007-.164.011-.247.011-.978,0-1.139-.509-1.17-.952-.139-1.984,2.346-4.923,7.358-6.7.311-.1.953-.31,1.862-.567-3.057,5.143-5.815,8.049-7.8,8.207m10.5-12.692c-.449.089-.884.185-1.309.283a17.163,17.163,0,0,0,1.585-.866c-.092.194-.183.389-.276.583m1.449-5.836a7.821,7.821,0,0,1-5.663,3.229,4.546,4.546,0,0,1-3.368-1.535,6.818,6.818,0,0,1-1.52-2.68,15.09,15.09,0,0,1,.923-8.618c2-5.07,5.5-8.346,8.918-8.346a5.234,5.234,0,0,1,1.193.14,4,4,0,0,1,1.605.923,5.54,5.54,0,0,1,1.54,4.033,24.29,24.29,0,0,0-1.645,9.135,11.225,11.225,0,0,1-1.983,3.718" transform="translate(-289 -377.818)"/>
    <path id="Path_1151" data-name="Path 1151" class="cls-1" d="M383.373,423.366a2.684,2.684,0,0,1,.173-.949,3.684,3.684,0,0,1-1.268-1.915,9.848,9.848,0,0,1,.406-5.561l4.94-16.146.017-.131.2-.681a.9.9,0,0,0-.858-1.153H383.57a.9.9,0,0,0-.858.638l-4.3,14.292c-1.075,3.507-1.214,6.437-.413,8.708a7.6,7.6,0,0,0,5.539,4.79,6.352,6.352,0,0,0,.693.145l-.037-.042a3.028,3.028,0,0,1-.824-1.994" transform="translate(-348.107 -379.143)"/>
    <path id="Path_1152" data-name="Path 1152" class="cls-2" d="M596.683,413.325c-.488-.653-1.909-.552-1.975.394,0,0-.589,7.063-4.9,6.364-5.227-.846,2.775-21.494,3.085-22.349.047-.129.656-1.425-1.64-2.258a1.94,1.94,0,0,0-1.974.143,1.793,1.793,0,0,0-.3.4c-.175.315-.758,1.406-1.007,1.876l-.23.441a8.3,8.3,0,0,0-6.685-3.124c-6.643,0-13.819,6.466-16,14.413a17.224,17.224,0,0,0-.628,4.36v.329c0,.119,0,.238,0,.352a10.44,10.44,0,0,0,3.032,7.465,8.418,8.418,0,0,0,5.862,2.2c3.9,0,8.153-2.242,11.447-6.018.341,2.86,1.592,5.685,3.5,5.913-.028-.006-.055-.009-.084-.014h0a3.855,3.855,0,0,0,.944.117,5.253,5.253,0,0,0,4.011-2.284c2.6-3.036,4.067-8.011,3.533-8.725m-13.208-.179a11.267,11.267,0,0,1-1.946,3.713,7.653,7.653,0,0,1-5.563,3.224,4.431,4.431,0,0,1-3.308-1.533c-2.282-2.438-2.58-7.053-.759-11.758,1.774-4.584,5.011-7.69,8.246-7.912.142-.009.28-.014.416-.014A4.2,4.2,0,0,1,583.579,400a5.577,5.577,0,0,1,1.512,4.026,24.636,24.636,0,0,0-1.615,9.122" transform="translate(-472.973 -378.062)"/>
    <path id="Path_1153" data-name="Path 1153" class="cls-2" d="M887.79,413.325c-.488-.653-1.909-.552-1.975.394,0,0-.589,7.063-4.9,6.364-5.226-.846,2.776-21.494,3.085-22.349.047-.129.656-1.425-1.64-2.258a1.94,1.94,0,0,0-1.974.143,1.8,1.8,0,0,0-.3.4c-.174.315-.758,1.406-1.007,1.876l-.23.441a8.3,8.3,0,0,0-6.685-3.124c-6.643,0-13.819,6.466-16,14.413a17.116,17.116,0,0,0-.629,4.36v.329c0,.119,0,.238,0,.352a10.438,10.438,0,0,0,3.032,7.465,8.418,8.418,0,0,0,5.861,2.2c3.9,0,8.154-2.242,11.447-6.018.341,2.86,1.593,5.685,3.5,5.913-.028-.006-.056-.009-.084-.014h.005a3.85,3.85,0,0,0,.943.117,5.253,5.253,0,0,0,4.011-2.284c2.6-3.036,4.067-8.011,3.533-8.725m-13.208-.179a11.262,11.262,0,0,1-1.946,3.713,7.652,7.652,0,0,1-5.562,3.224,4.434,4.434,0,0,1-3.309-1.533c-2.281-2.438-2.58-7.053-.758-11.758,1.774-4.584,5.011-7.69,8.246-7.912.142-.009.28-.014.416-.014A4.2,4.2,0,0,1,874.686,400a5.577,5.577,0,0,1,1.512,4.026,24.636,24.636,0,0,0-1.615,9.122" transform="translate(-667.419 -378.062)"/>
    <path id="Path_1154" data-name="Path 1154" class="cls-2" d="M662.691,424.223c-2.722-.138-4.729-1.113-5.964-2.9-3.637-5.255.335-16.331,3.027-22.466.088-.2.175-.405.263-.609a20.343,20.343,0,0,1,1-2.113,2.325,2.325,0,0,1,2.242-1.069l.137-.006c.211-.009.441-.019.678-.019.528,0,2.135,0,2.555,1.325a2.476,2.476,0,0,1-.406,1.907c-.061.119-.122.235-.176.349a66.31,66.31,0,0,0-3.805,10.09c-.775,2.746-1.946,6.9-.778,10,.491,1.308,1.187,1.944,2.124,1.943,1.955,0,4.72-2.73,6.493-5.068a37.983,37.983,0,0,0,3.6-5.836l.287-.556a11.452,11.452,0,0,0,1.355-3.456c.094-.649.128-1.321.163-1.971.03-.588.061-1.2.136-1.8.279-2.236.922-5.342,3.285-6.482a2.481,2.481,0,0,1,1.067-.27,1.707,1.707,0,0,1,1.173.454,3.991,3.991,0,0,1,1,2.63,9.892,9.892,0,0,1-1.106,4.629,22.436,22.436,0,0,1-2.042,3.45,13.315,13.315,0,0,0-1.274,2.521c-.163.388-.326.776-.5,1.156a5.518,5.518,0,0,0,.985,2.95,2.4,2.4,0,0,0,.527.458,3.234,3.234,0,0,1,.566.475,2.047,2.047,0,0,1,.324,1.393c0,.166,0,.33.015.479l.044.477-.49-.149a5.613,5.613,0,0,1-3.452-3.2,35.041,35.041,0,0,1-5.315,7.376c-2.556,2.663-5.011,3.9-7.722,3.9Z" transform="translate(-533.647 -377.951)"/>
    <path id="Path_1155" data-name="Path 1155" class="cls-2" d="M543.191,354.154a.667.667,0,0,0-.519-.258h-6.988l2.05-6.855.7-2.532a.767.767,0,0,0-.135-.668.7.7,0,0,0-.552-.276l-.078,0-5.408.829a.681.681,0,0,0-.406.224l-.048.055-2.773,9.219h-2.675a.687.687,0,0,0-.654.556l-.875,3.581a.831.831,0,0,0,.148.711.667.667,0,0,0,.519.258h2l-4.888,16.251a20.674,20.674,0,0,0-.917,4.764,10.152,10.152,0,0,0,1.9,3.281l.052.056a8.083,8.083,0,0,0,1.485,1.292A3.039,3.039,0,0,1,526.454,388a3.753,3.753,0,0,1-.3.792,11.152,11.152,0,0,0,2.043.788,6.948,6.948,0,0,0,1.886.261c3.337,0,6.743-2.487,8.892-6.49a1.733,1.733,0,0,0,.122-1.335,1.69,1.69,0,0,0-1.615-1.187,1.765,1.765,0,0,0-1.527.9c-2.293,4.048-4.555,4.485-5.421,4.485a2.375,2.375,0,0,1-.641-.083A2.941,2.941,0,0,1,527.737,384a9.239,9.239,0,0,1,.4-5.179l4.957-16.2.017-.132L534.157,359h7.654a.687.687,0,0,0,.653-.557l.875-3.58a.83.83,0,0,0-.148-.711" transform="translate(-444.43 -343.565)"/>
    <path id="Path_1156" data-name="Path 1156" class="cls-2" d="M820.555,389.838a6.96,6.96,0,0,1-1.886-.261,8.221,8.221,0,0,1-5.982-5.2c-.849-2.406-.713-5.475.4-9.119l9.194-30.576.05-.055a.682.682,0,0,1,.405-.222l5.408-.83.078,0a.7.7,0,0,1,.553.276.765.765,0,0,1,.134.668l-.7,2.531-4.619,15.447-.016.132-4.958,16.2a9.244,9.244,0,0,0-.4,5.179,2.941,2.941,0,0,0,2.151,2.128,2.375,2.375,0,0,0,.641.083c.866,0,3.127-.438,5.421-4.486a1.764,1.764,0,0,1,1.527-.9,1.688,1.688,0,0,1,1.615,1.186,1.729,1.729,0,0,1-.122,1.335c-2.148,4-5.555,6.491-8.891,6.491" transform="translate(-638.431 -343.566)"/>
    <path id="Path_1157" data-name="Path 1157" class="cls-2" d="M758.406,414.931a6.5,6.5,0,0,1-4.024-3.321,7.435,7.435,0,0,1-.626-2.031c2.493-8.078-1.045-14.725-7.91-14.849s-14.468,6.33-16.972,14.416,1.036,14.741,7.905,14.865c5.956.108,12.457-4.73,15.713-11.287a8.623,8.623,0,0,0,5.225,4.3,1.113,1.113,0,0,0,.245.051,1.093,1.093,0,0,0,1.139-.755,1.106,1.106,0,0,0-.7-1.392m-13.853,2.909,0-.028a6.975,6.975,0,0,1-4.4,1.876,4.531,4.531,0,0,1-3.423-1.6c-2.295-2.5-2.507-7.156-.542-11.859,1.89-4.521,5.227-7.548,8.5-7.709.106,0,.21-.007.312-.007a4.355,4.355,0,0,1,3.129,1.161,4.657,4.657,0,0,1,1.117,1.752c0,.009.008.02.012.03a10.7,10.7,0,0,0,.495,7.234,17.579,17.579,0,0,1-.9,2.988,15.654,15.654,0,0,1-4.3,6.163" transform="translate(-582.277 -377.739)"/>
    <path id="Path_1158" data-name="Path 1158" class="cls-2" d="M455.949,417.459a6.871,6.871,0,0,1-1.009-.941,7.61,7.61,0,0,1-1.313-2.141,11.368,11.368,0,0,1-.773-3.457c-.018-.221-.022-.453-.032-.682-.005-.143-.017-.281-.019-.427l.03-.644,0-.085a27.107,27.107,0,0,1,1.3-6.62c.05-.161.1-.324.151-.477.016-.048.032-.1.047-.148.268-.774.564-1.569.894-2.387.075-.188.125-.313.144-.367a.7.7,0,0,0-.023-.562.408.408,0,0,0-.383-.219.618.618,0,0,0-.166.03,2.179,2.179,0,0,0-.784.605l-.075.078a7.41,7.41,0,0,0-.7.845c-.034.047-.062.093-.095.141a7,7,0,0,0-.71-.963c-.148-.165-.294-.331-.46-.484-3.743-3.439-10.562-2.192-15.232,2.784-3.48,3.71-4.779,8.445-3.665,12.039.006-.021.015-.042.022-.064l.171-.542c.094-.292.163-.505.244-.713a2.353,2.353,0,0,1,1.135-1.222c.393-.2.77-.423,1.156-.637a9.581,9.581,0,0,1,2.835-7.232c3.329-3.515,8.225-4.366,10.935-1.9a5.056,5.056,0,0,1,.986,1.249,5.557,5.557,0,0,1,.587,1.552,11.558,11.558,0,0,0-.449,1.467,6.788,6.788,0,0,0-.276,2.618,1.853,1.853,0,0,0,.2.623,2.408,2.408,0,0,0,.12.227,2.356,2.356,0,0,0,.563.587.623.623,0,0,1,.234.605c-.117.683-.2,1.147-.371,2.034-.055.291-.1.6-.131.919-.017.154-.036.306-.049.464,0,.053-.012.1-.016.156a12.7,12.7,0,0,0,.161,3.285,5.439,5.439,0,0,0,1.016,2.368,3.191,3.191,0,0,0,2.082,1.171,2.606,2.606,0,0,0,.313.026,2.181,2.181,0,0,0,.3-.014,1.967,1.967,0,0,0,1.451-.93,1.48,1.48,0,0,0-.338-2.015" transform="translate(-384.976 -378.996)"/>
    <path id="Path_1159" data-name="Path 1159" class="cls-2" d="M454.529,436.218a11.278,11.278,0,0,1-1.592,2.133c-2.813,2.97-6.74,4.029-9.526,2.8-.172.195-.349.378-.518.576a2.409,2.409,0,0,1-1.428.831c-.219.037-.439.063-.653.087,0,0-.588.065-.715.077-.147.014-.3.027-.444.056a.936.936,0,0,0-.25.094c.052.051.1.108.149.157,3.613,3.32,10.085,2.263,14.729-2.288.007-.292.021-.564.038-.8l.011-.125a15.063,15.063,0,0,1,.2-1.544c.144-.749.226-1.192.317-1.724a3.676,3.676,0,0,1-.319-.33" transform="translate(-389.462 -405.453)"/>
    <path id="Path_1160" data-name="Path 1160" class="cls-2" d="M413.038,440.512c.113-.01.226-.021.338-.035l.231-.027c.229-.026.468-.05.7-.09a1.19,1.19,0,0,0,.712-.422c.514-.6,1.064-1.219,1.638-1.824.532-.56,1.078-1.108,1.635-1.639.078-.074.158-.147.237-.221a.148.148,0,0,0,.012-.206.169.169,0,0,0-.239-.016l-2.92,2.675a.169.169,0,0,1-.237-.013l-.2-.229a.147.147,0,0,1,.014-.212l3.047-2.609a.148.148,0,0,0,.016-.21l-.03-.035-.031-.034a.169.169,0,0,0-.221-.021l-3.251,2.379a.168.168,0,0,1-.223-.025l-.2-.228a.149.149,0,0,1,.027-.223l3.3-2.249a.148.148,0,0,0,.026-.226.169.169,0,0,0-.217-.025q-.135.092-.272.182c-.65.426-1.317.838-1.993,1.235-.731.429-1.467.833-2.186,1.206a1.138,1.138,0,0,0-.565.588c-.082.21-.149.428-.217.638-.027.084-.041.126-.069.21-.034.1-.065.206-.1.309a4.732,4.732,0,0,1-.177.519,2.155,2.155,0,0,1-.73.879c-.05.038-.1.077-.161.118-.653.462-3.067,1.845-3.076,1.87-.785.445-5.267,2.989-5.477,3.095-2.093,1.057-3.125,2.067-3.119,3.075a1.867,1.867,0,0,0,.516,1.216l0,0,.043.047.057.067a2.054,2.054,0,0,0,1.174.7c1.035.179,2.251-.588,3.7-2.315.147-.177,3.648-3.966,4.256-4.625.017,0,2.031-2.151,2.617-2.644l0,0a2.3,2.3,0,0,1,1.042-.525,5.506,5.506,0,0,1,.571-.074" transform="translate(-362.515 -404.45)"/>
    <path id="Path_1161" data-name="Path 1161" class="cls-2" d="M455.949,417.459a6.871,6.871,0,0,1-1.009-.941,7.61,7.61,0,0,1-1.313-2.141,11.368,11.368,0,0,1-.773-3.457c-.018-.221-.022-.453-.032-.682-.005-.143-.017-.281-.019-.427l.03-.644,0-.085a27.107,27.107,0,0,1,1.3-6.62c.05-.161.1-.324.151-.477.016-.048.032-.1.047-.148.268-.774.564-1.569.894-2.387.075-.188.125-.313.144-.367a.7.7,0,0,0-.023-.562.408.408,0,0,0-.383-.219.618.618,0,0,0-.166.03,2.179,2.179,0,0,0-.784.605l-.075.078a7.41,7.41,0,0,0-.7.845c-.034.047-.062.093-.095.141a7,7,0,0,0-.71-.963c-.148-.165-.294-.331-.46-.484-3.743-3.439-10.562-2.192-15.232,2.784-3.48,3.71-4.779,8.445-3.665,12.039.006-.021.015-.042.022-.064l.171-.542c.094-.292.163-.505.244-.713a2.353,2.353,0,0,1,1.135-1.222c.393-.2.77-.423,1.156-.637a9.581,9.581,0,0,1,2.835-7.232c3.329-3.515,8.225-4.366,10.935-1.9a5.056,5.056,0,0,1,.986,1.249,5.557,5.557,0,0,1,.587,1.552,11.558,11.558,0,0,0-.449,1.467,6.788,6.788,0,0,0-.276,2.618,1.853,1.853,0,0,0,.2.623,2.408,2.408,0,0,0,.12.227,2.356,2.356,0,0,0,.563.587.623.623,0,0,1,.234.605c-.117.683-.2,1.147-.371,2.034-.055.291-.1.6-.131.919-.017.154-.036.306-.049.464,0,.053-.012.1-.016.156a12.7,12.7,0,0,0,.161,3.285,5.439,5.439,0,0,0,1.016,2.368,3.191,3.191,0,0,0,2.082,1.171,2.606,2.606,0,0,0,.313.026,2.181,2.181,0,0,0,.3-.014,1.967,1.967,0,0,0,1.451-.93,1.48,1.48,0,0,0-.338-2.015" transform="translate(-384.976 -378.996)"/>
    <path id="Path_1162" data-name="Path 1162" class="cls-2" d="M454.529,436.218a11.278,11.278,0,0,1-1.592,2.133c-2.813,2.97-6.74,4.029-9.526,2.8-.172.195-.349.378-.518.576a2.409,2.409,0,0,1-1.428.831c-.219.037-.439.063-.653.087,0,0-.588.065-.715.077-.147.014-.3.027-.444.056a.936.936,0,0,0-.25.094c.052.051.1.108.149.157,3.613,3.32,10.085,2.263,14.729-2.288.007-.292.021-.564.038-.8l.011-.125a15.063,15.063,0,0,1,.2-1.544c.144-.749.226-1.192.317-1.724a3.676,3.676,0,0,1-.319-.33" transform="translate(-389.462 -405.453)"/>
    <path id="Path_1163" data-name="Path 1163" class="cls-2" d="M413.038,440.512c.113-.01.226-.021.338-.035l.231-.027c.229-.026.468-.05.7-.09a1.19,1.19,0,0,0,.712-.422c.514-.6,1.064-1.219,1.638-1.824.532-.56,1.078-1.108,1.635-1.639.078-.074.158-.147.237-.221a.148.148,0,0,0,.012-.206.169.169,0,0,0-.239-.016l-2.92,2.675a.169.169,0,0,1-.237-.013l-.2-.229a.147.147,0,0,1,.014-.212l3.047-2.609a.148.148,0,0,0,.016-.21l-.03-.035-.031-.034a.169.169,0,0,0-.221-.021l-3.251,2.379a.168.168,0,0,1-.223-.025l-.2-.228a.149.149,0,0,1,.027-.223l3.3-2.249a.148.148,0,0,0,.026-.226.169.169,0,0,0-.217-.025q-.135.092-.272.182c-.65.426-1.317.838-1.993,1.235-.731.429-1.467.833-2.186,1.206a1.138,1.138,0,0,0-.565.588c-.082.21-.149.428-.217.638-.027.084-.041.126-.069.21-.034.1-.065.206-.1.309a4.732,4.732,0,0,1-.177.519,2.155,2.155,0,0,1-.73.879c-.05.038-.1.077-.161.118-.653.462-3.067,1.845-3.076,1.87-.785.445-5.267,2.989-5.477,3.095-2.093,1.057-3.125,2.067-3.119,3.075a1.867,1.867,0,0,0,.516,1.216l0,0,.043.047.057.067a2.054,2.054,0,0,0,1.174.7c1.035.179,2.251-.588,3.7-2.315.147-.177,3.648-3.966,4.256-4.625.017,0,2.031-2.151,2.617-2.644l0,0a2.3,2.3,0,0,1,1.042-.525,5.506,5.506,0,0,1,.571-.074" transform="translate(-362.515 -404.45)"/>
  </g>
</svg>
