<svg xmlns="http://www.w3.org/2000/svg" width="52.988" height="52.472" viewBox="0 0 52.988 52.472">
  <defs>
    <style>
      .cls-1 {
        fill: #c83206;
      }
    </style>
  </defs>
  <g id="Promo_grande" data-name="Promo grande" transform="translate(-321.45 -106.128)">
    <g id="Group_675" data-name="Group 675" transform="translate(321.45 106.128)">
      <path id="Path_2437" data-name="Path 2437" class="cls-1" d="M1130.283,161.236c0-1.22-2.575-2.244-2.743-3.417-.171-1.2,2.011-2.907,1.676-4.049-.341-1.162-3.1-1.417-3.6-2.5s1.108-3.351.459-4.357-3.37-.48-4.157-1.385.125-3.524-.783-4.311-3.366.487-4.378-.165-.865-3.416-1.963-3.918-3.086,1.419-4.247,1.078c-1.142-.335-1.789-3.03-2.992-3.2-1.174-.168-2.55,2.234-3.77,2.234s-2.6-2.4-3.77-2.234c-1.2.171-1.851,2.866-2.992,3.2-1.162.34-3.161-1.575-4.247-1.078s-.956,3.27-1.963,3.917-3.472-.622-4.379.165.005,3.4-.783,4.311-3.5.372-4.157,1.385.962,3.26.459,4.357-3.256,1.341-3.6,2.5c-.335,1.142,1.847,2.846,1.676,4.049-.168,1.174-2.743,2.2-2.743,3.418s2.575,2.243,2.743,3.417c.171,1.2-2.011,2.907-1.676,4.048.341,1.162,3.1,1.417,3.6,2.5s-1.109,3.351-.46,4.357,3.371.48,4.157,1.386-.125,3.523.783,4.311,3.366-.487,4.378.165.865,3.416,1.963,3.918,3.086-1.418,4.247-1.078c1.142.335,1.789,3.03,2.993,3.2,1.173.167,2.55-2.235,3.77-2.235s2.6,2.4,3.769,2.235c1.2-.172,1.85-2.866,2.993-3.2,1.162-.341,3.16,1.574,4.247,1.078s.956-3.269,1.963-3.917,3.472.622,4.378-.165,0-3.4.783-4.311,3.5-.373,4.157-1.386-.961-3.259-.459-4.357,3.256-1.341,3.6-2.5c.335-1.142-1.847-2.846-1.676-4.049C1127.708,163.479,1130.283,162.456,1130.283,161.236Zm-26.494,21.282a21.282,21.282,0,1,1,21.282-21.282A21.282,21.282,0,0,1,1103.789,182.519Z" transform="translate(-1077.295 -135)"/>
      <path id="Path_2438" data-name="Path 2438" class="cls-1" d="M1126.037,163.862a19.521,19.521,0,1,1-19.521-19.521A19.543,19.543,0,0,1,1126.037,163.862Zm-27.1-9.98c-3.225,0-5.515,2.611-5.515,6.545.033,4.063,2.42,6.353,5.353,6.353,2.871,0,5.45-2.257,5.45-6.675C1104.226,156.333,1102.227,153.882,1098.938,153.882Zm-.1,2.224c1.742,0,2.386,1.871,2.386,4.192,0,2.548-.774,4.224-2.354,4.224s-2.451-1.774-2.418-4.192C1096.455,157.977,1097.229,156.106,1098.841,156.106Zm3.16,17.833,11.286-20.154h-2.257l-11.286,20.154Zm12.286-13.028c-3.192,0-5.482,2.644-5.482,6.578,0,4.063,2.418,6.32,5.32,6.32s5.483-2.257,5.483-6.643C1119.608,163.394,1117.609,160.911,1114.287,160.911Zm-.065,2.257c1.71,0,2.354,1.838,2.354,4.191,0,2.547-.741,4.224-2.354,4.224-1.548,0-2.418-1.805-2.418-4.192C1111.836,165.039,1112.61,163.169,1114.222,163.169Z" transform="translate(-1080.021 -137.626)"/>
    </g>
  </g>
</svg>
